<?xml version="1.0" encoding="utf-8"?>
<!-- Generator: Adobe Illustrator 25.0.1, SVG Export Plug-In . SVG Version: 6.00 Build 0)  -->
<svg version="1.1" id="idell-logo" xmlns="http://www.w3.org/2000/svg" xmlns:xlink="http://www.w3.org/1999/xlink" x="0px" y="0px"
	 viewBox="0 0 350.7 110" style="enable-background:new 0 0 350.7 110;" xml:space="preserve">
<style type="text/css">
	.st0{fill:#FFD506;}
	.st1{fill:#FFFFFF;}
	.st2{fill:#3D3D3D;}
</style>
<g id="Layer_2_1_">
</g>
<g id="Layer_1_1_">
	<g id="Layer_1_3_">
		<g>
			<circle class="st0" cx="55" cy="55" r="55"/>
			<g>
				<path class="st1" d="M68.6,72.2c-0.6,0-0.9-0.2-1.1-0.8c-3.4-9.6-6.7-19.2-10.1-28.8c-0.3-0.8-0.1-1,0.7-1
					c4.3,0,3.8,0.2,9.1,0.2c6.8,0,9.2,3.5,10.7,7.3c3.1,7.9,1.5,4.8,4.6,12.8c2,6.2,1.2,10.7-5.8,10.7
					C76.5,72.7,70.1,72.3,68.6,72.2z"/>
				<g>
					<path class="st1" d="M25.5,39.3c0.2,0,16.5,0,16.9,0s0.4-0.2,0.4-0.3c-0.9-2.2-1.6-4.2-2.5-6.5c-0.2-0.5-1.1-1-1.8-1
						c-5.5,0-8.1,0-12.4,0c-2.5,0-3.4,1.2-2.6,3.2c0.6,1.4,1.1,2.9,1.7,4.3C25.2,39.1,25.3,39.3,25.5,39.3z"/>
					<path class="st1" d="M57.2,82.5c-0.8-2.2-9.6-28.6-13.6-40.3c-0.1-0.2-0.3-0.5-0.9-0.5c-0.6,0-16.2,0-16.5,0s-0.4,0.2-0.3,0.4
						c2,5.9,10.2,30.3,12.7,37.8c0.8,2.4,2.2,3.3,4.7,3.3c2.1,0,11,0,13.4,0C57.3,83.1,57.4,83,57.2,82.5z"/>
				</g>
			</g>
		</g>
	</g>
	<g>
		<g>
			<g>
				<path class="st2" d="M299.2,68.2h-52.7c2.5,9.8,10.5,17.3,21,17.3c7.5,0,14.7-4,18.1-10.7h11.9c-4.8,13-16.6,21.6-30.5,21.6
					c-18.1,0-32.4-15.7-32.4-33.5c0-18.4,14-33.4,32.6-33.4c18,0,32.4,14.8,32.4,32.7C299.6,64.2,299.5,66.2,299.2,68.2z
					 M267.1,40.4c-10.3,0-19.8,8.1-20.5,18.6h41.1C287,48.6,277.4,40.4,267.1,40.4z"/>
				<path class="st2" d="M312.7,94.8V9.9h11.9v84.9H312.7z"/>
				<path class="st2" d="M338.8,94.8V9.9h11.9v84.9H338.8z"/>
			</g>
			<g>
				<rect x="130.5" y="30" class="st2" width="12.4" height="64.8"/>
				<rect x="130.5" y="15.8" class="st2" width="12.4" height="9.9"/>
			</g>
			<path class="st2" d="M222.4,9.4h-12.1v28.2c-5.8-4.9-13.3-7.8-21.4-7.8c-18.5,0-33.5,15-33.5,33.5s15,33.5,33.5,33.5
				s33.5-15,33.5-33.5C222.4,62.9,222.4,9.4,222.4,9.4z M188.9,84.8c-11.8,0-21.4-9.6-21.4-21.4S177.1,42,188.9,42
				c11.8,0,21.4,9.6,21.4,21.4C210.4,75.2,200.7,84.8,188.9,84.8z"/>
		</g>
	</g>
</g>
</svg>
