<?xml version="1.0" encoding="utf-8"?>
<!-- Generator: Adobe Illustrator 25.0.1, SVG Export Plug-In . SVG Version: 6.00 Build 0)  -->
<svg version="1.1" id="Layer_1" xmlns="http://www.w3.org/2000/svg" xmlns:xlink="http://www.w3.org/1999/xlink" x="0px" y="0px"
	 viewBox="0 0 1510.8 842.6" style="enable-background:new 0 0 1510.8 842.6;" xml:space="preserve">
<style type="text/css">
	.st0{fill:	white;}
	.st1{fill:#dadaff;}
</style>
<g>
	<path class="st0" d="M754.3,842.5c-160.6,0-321.2,0.5-481.8-0.2c-88.6-0.4-165.4-30.3-221.4-101c-108.4-136.7-36.2-333.9,139.2-378
		c31.9-8,40.7-18.8,41.6-51.5c4.1-154.8,140.8-295,296.6-309.6C654.9-9.6,763,25.9,846,124c18.4,21.7,37.7,15.1,58.3,13.9
		c130.2-7,236.8,38.3,303,152.5c24.1,41.5,44.8,61.6,95.3,69.5c116.8,18.2,201,112.3,207.6,213.5c8.6,132.9-80.8,243.8-213.4,263.4
		c-25.1,3.7-50.7,5.3-76.1,5.4C1065.2,842.7,909.8,842.5,754.3,842.5z"/>
</g>
<polygon class="st1" points="700.3,193 498.8,394.5 614,394.5 614,653.6 786.7,653.6 786.7,394.5 901.9,394.5 "/>
</svg>
	